<?xml version="1.0" standalone="no"?>
<!DOCTYPE svg PUBLIC "-//W3C//DTD SVG 20010904//EN"
 "http://www.w3.org/TR/2001/REC-SVG-20010904/DTD/svg10.dtd">
<svg version="1.0" xmlns="http://www.w3.org/2000/svg"
 width="2178.000000pt" height="384.000000pt" viewBox="0 0 2178.000000 384.000000"
 preserveAspectRatio="xMidYMid meet">

<g transform="translate(0.000000,384.000000) scale(0.100000,-0.100000)"
fill="#e50914" stroke="none">
<path d="M10 1925 c0 -1525 3 -1915 13 -1915 16 0 535 69 564 76 l23 4 2 1036
3 1036 344 -988 c189 -544 345 -991 347 -994 1 -3 149 10 328 30 l326 35 0
1797 0 1798 -300 0 -300 0 -2 -1074 -3 -1075 -387 1072 -386 1072 -286 3 -286
2 0 -1915z"/>
<path d="M2540 2069 l0 -1771 43 6 c114 16 1204 98 1490 112 l137 7 0 298 0
298 -52 -5 c-29 -2 -226 -16 -438 -30 -212 -13 -427 -28 -478 -32 -51 -4 -95
-6 -97 -3 -3 2 -5 203 -5 446 l0 442 263 6 c144 4 326 7 405 7 l142 0 0 297 0
296 -405 -6 -405 -6 0 405 0 404 535 0 535 0 0 300 0 300 -835 0 -835 0 0
-1771z"/>
<path d="M4600 3540 l0 -300 315 0 315 0 0 -1386 0 -1386 48 6 c26 3 161 8
300 12 l252 6 0 1374 0 1374 315 0 315 0 0 300 0 300 -930 0 -930 0 0 -300z"/>
<path d="M6840 2175 l0 -1665 300 0 300 0 0 685 0 685 410 0 410 0 -2 293 -3
292 -407 3 -408 2 0 385 0 385 540 0 540 0 0 300 0 300 -840 0 -840 0 0 -1665z"/>
<path d="M8900 2161 l0 -1679 113 -6 c61 -3 173 -8 247 -11 239 -10 739 -35
975 -50 127 -8 247 -15 268 -15 l37 0 0 295 0 295 -22 0 c-13 0 -122 7 -243
14 -121 8 -326 20 -455 26 -129 6 -254 13 -277 16 l-43 5 0 1395 0 1394 -300
0 -300 0 0 -1679z"/>
<path d="M11030 2100 c0 -1448 2 -1740 13 -1740 22 0 487 -39 540 -45 l47 -6
0 1766 0 1765 -300 0 -300 0 0 -1740z"/>
<path d="M12152 3823 c3 -10 159 -416 348 -902 l343 -884 -169 -391 c-93 -215
-264 -611 -380 -881 -117 -269 -211 -491 -209 -493 2 -2 386 -44 598 -64 28
-3 29 -2 247 502 119 278 221 505 225 505 4 0 104 -251 223 -557 215 -556 216
-558 246 -563 100 -16 638 -86 644 -83 5 2 -166 453 -380 1003 -213 550 -388
1004 -388 1009 0 4 159 378 354 830 195 451 371 858 390 904 l35 82 -330 -2
-330 -3 -213 -493 c-117 -271 -216 -494 -220 -495 -4 -1 -94 221 -199 493
l-192 495 -324 3 c-305 2 -323 1 -319 -15z"/>
<path d="M15282 2910 c-385 -54 -649 -308 -733 -705 -26 -118 -35 -353 -20
-470 33 -245 101 -400 241 -548 157 -166 330 -246 567 -263 236 -16 469 53
612 183 66 60 134 148 174 228 30 60 79 196 73 202 -2 2 -86 30 -187 63 l-183
58 -21 -67 c-29 -88 -68 -163 -111 -211 -150 -166 -430 -175 -599 -19 -128
118 -183 317 -173 622 8 224 50 362 142 463 128 143 354 186 532 103 94 -45
153 -116 210 -255 l9 -22 183 43 c101 24 186 46 189 49 3 3 -6 38 -21 78 -85
231 -264 389 -506 448 -97 23 -283 33 -378 20z"/>
<path d="M16540 1920 l0 -970 180 0 180 0 0 970 0 970 -180 0 -180 0 0 -970z"/>
<path d="M17795 2380 c-231 -37 -413 -165 -509 -361 -58 -119 -76 -188 -83
-319 -16 -320 117 -577 362 -695 121 -58 213 -79 355 -79 146 0 216 15 336 74
142 69 279 220 334 368 53 141 64 364 25 507 -66 239 -259 430 -495 489 -80
20 -245 28 -325 16z m239 -310 c148 -56 226 -199 226 -415 0 -164 -42 -279
-128 -356 -119 -105 -305 -105 -424 0 -86 77 -128 192 -128 356 0 164 42 279
128 356 87 76 216 100 326 59z"/>
<path d="M19613 2375 c-98 -21 -189 -71 -268 -147 -38 -38 -71 -68 -72 -68 -2
0 -3 45 -3 100 l0 100 -170 0 -170 0 0 -705 0 -705 184 0 184 0 4 448 c4 394
7 453 22 502 23 71 60 121 116 158 63 42 111 55 186 50 50 -3 72 -10 106 -34
99 -69 108 -129 108 -706 l0 -418 186 0 186 0 -5 528 c-3 317 -10 546 -16 575
-39 176 -150 282 -338 322 -83 18 -158 18 -240 0z"/>
<path d="M21005 2380 c-193 -35 -361 -162 -445 -335 -51 -106 -71 -197 -77
-347 -11 -271 50 -463 191 -603 72 -71 152 -115 261 -146 104 -30 314 -32 415
-5 168 46 302 152 374 299 21 43 36 80 34 82 -4 4 -363 65 -363 62 0 -1 -12
-27 -27 -59 -41 -87 -110 -128 -213 -128 -145 0 -270 113 -290 261 -4 24 -8
54 -11 67 l-4 22 466 0 467 0 -6 128 c-7 155 -39 291 -94 394 -73 139 -217
253 -371 293 -77 19 -238 27 -307 15z m219 -282 c27 -8 61 -32 98 -69 58 -58
76 -98 93 -206 l7 -43 -282 0 -283 0 7 58 c8 73 59 176 107 214 68 55 164 72
253 46z"/>
</g>
</svg>
